<?xml version="1.0" encoding="UTF-8" standalone="no"?>
<svg
   xmlns:dc="http://purl.org/dc/elements/1.1/"
   xmlns:cc="http://creativecommons.org/ns#"
   xmlns:rdf="http://www.w3.org/1999/02/22-rdf-syntax-ns#"
   xmlns:svg="http://www.w3.org/2000/svg"
   xmlns="http://www.w3.org/2000/svg"
   xmlns:sodipodi="http://sodipodi.sourceforge.net/DTD/sodipodi-0.dtd"
   xmlns:inkscape="http://www.inkscape.org/namespaces/inkscape"
   width="3076.0842"
   height="2188.7241"
   viewBox="0 0 813.8804 579.09997"
   version="1.1"
   id="svg8"
   inkscape:export-filename="/home/mixer/projects/LD47/Assets/track.png"
   inkscape:export-xdpi="96"
   inkscape:export-ydpi="96"
   sodipodi:docname="track.svg"
   inkscape:version="1.0.1 (3bc2e813f5, 2020-09-07)">
  <defs
     id="defs2" />
  <sodipodi:namedview
     id="base"
     pagecolor="#ffffff"
     bordercolor="#666666"
     borderopacity="1.0"
     inkscape:pageopacity="0.0"
     inkscape:pageshadow="2"
     inkscape:zoom="0.35"
     inkscape:cx="1425.5189"
     inkscape:cy="1109.0755"
     inkscape:document-units="mm"
     inkscape:current-layer="layer1"
     inkscape:document-rotation="0"
     showgrid="false"
     units="px"
     inkscape:window-width="1920"
     inkscape:window-height="1038"
     inkscape:window-x="0"
     inkscape:window-y="1122"
     inkscape:window-maximized="0"
     fit-margin-top="0"
     fit-margin-left="1.8"
     fit-margin-right="0"
     fit-margin-bottom="0" />
  <metadata
     id="metadata5">
    <rdf:RDF>
      <cc:Work
         rdf:about="">
        <dc:format>image/svg+xml</dc:format>
        <dc:type
           rdf:resource="http://purl.org/dc/dcmitype/StillImage" />
        <dc:title />
      </cc:Work>
    </rdf:RDF>
  </metadata>
  <g
     inkscape:label="Layer 1"
     inkscape:groupmode="layer"
     id="layer1"
     transform="translate(334.73086,78.293763)">
    <rect
       style="fill:#76cf7c;fill-opacity:1;stroke:#6d6d6d;stroke-width:0;stroke-linecap:round;stroke-miterlimit:4;stroke-dasharray:none;stroke-dashoffset:0;stroke-opacity:1;paint-order:markers stroke fill"
       id="rect1636"
       width="814.02985"
       height="579.09991"
       x="-334.73087"
       y="-78.293762"
       inkscape:export-xdpi="95.968239"
       inkscape:export-ydpi="95.968239" />
    <path
       style="fill:none;stroke:#6c6d6d;stroke-width:8.26505417;stroke-linecap:butt;stroke-linejoin:miter;stroke-miterlimit:4;stroke-dasharray:none;stroke-dashoffset:0;stroke-opacity:1"
       d="m -280.18587,24.022721 c 1.33526,5.120003 5.72275,29.488234 47.1132,34.069736 41.39043,4.581484 27.63681,-40.248496 45.01155,-37.80528 17.37473,2.443218 48.25578,19.254226 39.21007,34.506971 -9.04572,15.252731 32.84412,27.948814 34.9424,9.633276 2.09828,-18.315549 23.492221,-32.665566 -23.89619,-63.57891552 -47.3884,-30.91333548 -87.68611,-45.11527148 -114.81431,-32.09382848 -27.1282,13.021458 23.86167,16.852455 23.08659,33.4169743 -0.77507,16.5645067 -58.67315,-6.629599 -50.65331,21.8510667 z"
       id="path1612" />
    <path
       style="fill:none;stroke:#6f6d6d;stroke-width:9.09029;stroke-linecap:butt;stroke-linejoin:miter;stroke-miterlimit:4;stroke-dasharray:none;stroke-opacity:1"
       d="M 20.31149,69.133745 C 21.44528,67.468773 35.930404,54.946488 32.339998,40.048359 28.749594,25.150227 29.913871,14.444093 50.247463,15.495501 70.581055,16.546909 77.694211,45.346738 89.577357,46.48106 101.4605,47.615379 129.84642,41.775024 116.76687,73.235123 112.00396,84.691299 93.525621,66.16415 82.676155,79.872177 75.649257,88.750486 93.073302,105.06031 82.533099,111.86167 71.992892,118.66302 -2.9779234,134.25133 20.31149,69.133745 Z"
       id="path835"
       sodipodi:nodetypes="cssssssc" />
    <path
       style="fill:none;stroke:#6d6e6d;stroke-width:6.423;stroke-linecap:butt;stroke-linejoin:miter;stroke-miterlimit:4;stroke-dasharray:none;stroke-dashoffset:0;stroke-opacity:1"
       d="m -84.033367,-2.5693369 c 10.421821,-10.4438891 -1.008352,-18.8939291 -0.357823,-26.6697151 0.650542,-7.775774 32.82782,-13.27949 46.259077,-13.634384 39.4936121,-1.043551 54.82978,-13.074703 56.231299,-0.827653 2.730579,23.860915 -0.739541,35.2025553 -25.5087359,38.7337249 -8.0732001,1.1509393 -5.2993111,-17.1899139 -16.4862691,-9.1111339 -5.476893,3.955196 -26.797194,-2.252165 -24.106418,13.24518308 1.236275,7.12025632 -63.946473,26.23843292 -36.03113,-1.73602198 z"
       id="path1608"
       sodipodi:nodetypes="ssssssss" />
    <path
       style="fill:none;stroke:#6d6f6d;stroke-width:6.72332708;stroke-linecap:butt;stroke-linejoin:miter;stroke-miterlimit:4;stroke-dasharray:none;stroke-opacity:1"
       d="m -71.220318,50.883701 c 0,0 -18.48,32.116972 -10.274556,44.217447 8.205446,12.100472 23.672628,-17.35133 26.80775,-4.427241 3.135121,12.924093 5.63536,38.425903 13.225094,24.534863 7.589734,-13.89104 -0.279802,-26.093113 12.883708,-22.711307 13.16351,3.381809 42.951005,-48.780014 17.589375,-49.228584 -25.361627,-0.448569 -49.5067,-12.472384 -60.231371,7.614822 z"
       id="path1614" />
    <path
       style="fill:none;stroke:#6d6c6f;stroke-width:7.465;stroke-linecap:butt;stroke-linejoin:miter;stroke-miterlimit:4;stroke-dasharray:none;stroke-opacity:1"
       d="m -156.57297,102.55501 c 5.94276,0 61.687049,0.92257 59.289379,11.75683 -2.397672,10.83426 -62.842079,33.07499 -64.362729,42.6971 -1.52065,9.6221 49.09321,23.68174 28.93299,46.696 -20.16023,23.01426 -57.5458,11.36656 -53.02331,2.29522 4.52249,-9.07134 5.9397,-35.67961 -0.99343,-45.9485 -6.93313,-10.26889 -30.34108,5.3779 -40.79337,15.33738 -10.45229,9.95948 -62.3404,6.64266 -51.67061,-21.66386 10.66979,-28.30653 22.73983,-33.3636 36.29519,-35.45089 13.55536,-2.08729 25.7779,-8.59333 38.98974,-12.49509 13.21184,-3.90175 47.33615,-3.22419 47.33615,-3.22419 z"
       id="path1616" />
    <path
       style="fill:none;stroke:#6d6c6c;stroke-width:9.665;stroke-linecap:butt;stroke-linejoin:miter;stroke-miterlimit:4;stroke-dasharray:none;stroke-opacity:1"
       d="m -104.88593,198.3765 c -11.03673,18.72911 -29.35951,58.08247 -26.71229,72.44794 2.64722,14.3655 36.044197,49.8891 33.712575,62.44659 -2.331625,12.55752 -37.448765,0.53136 -41.915905,27.36919 -4.46714,26.83782 51.594231,40.66611 75.840722,35.37265 24.246487,-5.29347 56.314159,-73.29175 54.9168203,-88.55784 -1.3973413,-15.26612 -56.4081263,-42.17739 -55.6371993,-61.64511 0.770925,-19.4677 -18.131104,-93.5192 -40.204723,-47.43342 z"
       id="path1618" />
    <path
       style="fill:none;stroke:#6f6f6d;stroke-width:12.465;stroke-linecap:butt;stroke-linejoin:miter;stroke-miterlimit:4;stroke-dasharray:none;stroke-opacity:1"
       d="m -65.825344,170.55942 c 6.409713,18.62691 16.513484,59.60481 28.585604,47.53312 6.39319,-6.39296 18.817322,-10.33713 27.8890735,-17.26469 8.38981957,-6.40681 18.7776292,-5.16757 24.6923065,-2.44023 12.573265,5.79771 32.227544,-18.68006 27.732067,-33.37855 -4.495475,-14.69848 -8.204965,-32.77633 -28.253359,-32.88579 -20.0483973,-0.10946 -40.931168,9.18944 -41.066802,19.2481 -0.135633,10.05866 -17.321551,16.59547 -19.985167,4.91708 -2.663616,-11.67839 -22.959057,-36.11776 -34.570389,-22.90391 -11.611329,13.21386 9.079632,14.0741 14.976666,37.17487 z"
       id="path1620"
       sodipodi:nodetypes="cssssssssc" />
    <path
       style="fill:none;stroke:#6d6d6c;stroke-width:11.265;stroke-linecap:butt;stroke-linejoin:miter;stroke-miterlimit:4;stroke-dasharray:none;stroke-opacity:1"
       d="m 19.840541,224.13469 c -19.15528254,2.45655 -45.357208,11.74684 -38.307353,27.05362 7.049852,15.30681 34.127939,39.6771 26.8412721,74.24836 -7.2866672,34.57122 25.9366439,84.05812 50.0270349,71.51867 24.090389,-12.53945 49.656115,-48.23762 50.635715,-63.9745 C 110.0168,317.24392 54.42816,218.43761 19.840541,224.13469 Z"
       id="path1622" />
    <path
       style="fill:none;stroke:#6d6f6f;stroke-width:11.265;stroke-linecap:butt;stroke-linejoin:miter;stroke-miterlimit:4;stroke-dasharray:none;stroke-opacity:1"
       d="m 106.03289,117.93763 c -7.186359,3.99361 -40.799726,27.91933 -43.655289,46.65377 -2.855561,18.73445 -12.595682,43.63485 -4.122614,53.93529 4.027499,4.8961 24.375062,-5.55226 40.336804,-22.56271 6.336509,-6.75282 12.033859,-15.64056 20.233019,-18.62524 12.93735,-4.70948 23.80971,-17.06851 27.33307,-17.69832 10.37717,-1.85494 35.69531,1.5725 49.75156,-1.38496 14.05623,-2.95745 8.09477,-15.87673 0.0832,-21.63943 -8.01156,-5.76271 -63.1558,0.0288 -68.05919,-11.42907 -4.90339,-11.45788 -21.90057,-7.24933 -21.90057,-7.24933 z"
       id="path1624"
       sodipodi:nodetypes="ssssssssscs" />
    <path
       style="fill:none;stroke:#6f6f6e;stroke-width:8.565;stroke-linecap:butt;stroke-linejoin:miter;stroke-miterlimit:4;stroke-dasharray:none;stroke-opacity:1"
       d="m 117.5415,223.03768 c -9.05722,2.6411 -29.490985,20.42686 -20.238746,33.27336 9.252236,12.84648 24.657976,-0.13409 34.069786,10.96024 9.41178,11.09434 -12.06979,18.42307 -4.15518,39.38944 7.91462,20.96638 50.71785,-17.09563 39.16603,32.56375 -11.55178,49.65941 -15.12376,69.88173 33.2263,72.14418 48.35006,2.26248 111.73719,-17.00924 91.67574,-69.08533 -20.06145,-52.07611 -51.22825,-54.22095 -66.24886,-47.06726 -15.02061,7.15368 -47.61449,2.47216 -47.99248,-10.20804 -0.37798,-12.68019 5.10659,-27.24701 -13.22231,-33.31737 -18.32891,-6.07036 -39.24319,-8.15062 -34.11212,-18.06345 5.13106,-9.91282 -12.16816,-10.58952 -12.16816,-10.58952 z"
       id="path1626" />
    <path
       style="fill:none;stroke:#6e6d6f;stroke-width:11.065;stroke-linecap:butt;stroke-linejoin:miter;stroke-miterlimit:4;stroke-dasharray:none;stroke-opacity:1"
       d="m 155.14498,181.17609 c -7.0401,2.97399 -32.09695,7.77398 -14.53708,22.65804 17.55984,14.88407 52.86502,32.86002 56.26682,46.46241 3.40177,13.60238 34.413,27.29798 52.61086,26.54204 18.19783,-0.75597 62.14343,20.90587 63.75421,57.32346 1.61078,36.4176 18.28532,41.20763 10.41311,57.90165 -7.38493,15.66069 26.62985,73.62373 54.89002,54.76174 28.2602,-18.86198 65.45858,-48.30455 65.39265,-76.42381 -0.0659,-28.11928 -80.25125,-9.14304 -79.82874,-31.03194 0.42254,-21.88888 57.03672,-52.43071 47.29687,-75.82903 -4.26398,-10.24347 -35.08827,-17.88092 -42.24283,-40.908 -7.44801,-23.97155 -48.06137,-34.15421 -49.84532,13.24507 -3.17309,84.30842 -46.55013,-67.21125 -78.86803,-63.26428 -32.3179,3.94698 -76.28543,4.7535 -85.30254,8.56265 z"
       id="path1628"
       sodipodi:nodetypes="ssssssssssssss" />
    <path
       style="fill:none;stroke:#6d6d6e;stroke-width:6.27671042;stroke-linecap:butt;stroke-linejoin:miter;stroke-miterlimit:4;stroke-dasharray:none;stroke-opacity:1"
       d="M 59.583135,-20.83936 C 58.629092,-7.1168063 47.715657,-9.2190558 62.917565,-0.69016719 78.119473,7.8387214 97.996666,36.315976 122.4369,34.550015 c 24.44022,-1.765962 50.61082,-35.35618346 46.23826,-48.255184 -4.37253,-12.899 -10.75798,-32.453182 -46.39283,-31.192934 -35.634855,1.260248 -51.227248,0.765203 -56.761831,11.194538 -5.534584,10.429335 -5.937364,12.864205 -5.937364,12.864205 z"
       id="path1630" />
    <path
       style="fill:none;stroke:#6e6e6d;stroke-width:8.965;stroke-linecap:butt;stroke-linejoin:miter;stroke-miterlimit:4;stroke-dasharray:none;stroke-opacity:1"
       d="m 240.15748,-36.440471 c -12.53971,-1.290434 -13.8081,-9.174296 -26.06955,0.626646 -12.26146,9.800943 -29.4766,14.434705 -23.32943,32.857282 6.14717,18.42258 14.82231,48.771688 41.0667,42.82795 26.24439,-5.943735 44.63616,14.924709 44.4573,-31.1821798 -0.17886,-46.1068902 -36.12502,-45.1296982 -36.12502,-45.1296982 z"
       id="path1632" />
    <path
       style="fill:none;stroke:#6e6d6e;stroke-width:8.865;stroke-linecap:butt;stroke-linejoin:miter;stroke-miterlimit:4;stroke-dasharray:none;stroke-opacity:1"
       d="m 144.82702,47.570412 c -3.51292,4.400203 -16.73913,55.030928 -8.00475,58.019578 8.73437,2.98865 20.3151,-3.03936 36.17518,3.54583 15.8601,6.58519 99.38803,-23.271419 92.28928,-37.227748 -7.09871,-13.956326 -47.9135,4.492482 -63.3754,-8.316674 -15.46191,-12.809156 -18.7315,-50.23586 -35.62297,-37.365844 -16.89148,12.870015 -19.70702,14.615847 -21.46134,21.344858 z"
       id="path1634" />
    <path
       style="fill:none;stroke:#6e6b6e;stroke-width:11.865;stroke-linecap:butt;stroke-linejoin:miter;stroke-miterlimit:4;stroke-dasharray:none;stroke-opacity:1"
       d="m 301.38379,-28.548102 c -2.02856,22.2863376 -31.61998,170.836192 -20.57077,182.306982 11.04921,11.4708 140.13008,57.32866 145.89482,47.38501 5.76477,-9.94365 -44.1162,-104.098284 -43.05377,-116.573234 1.06241,-12.474948 57.78095,-99.693292 54.64263,-106.418815 -3.13833,-6.725522 -130.96547,-24.089232 -136.91291,-6.699943 z"
       id="path1678"
       inkscape:export-xdpi="96"
       inkscape:export-ydpi="96" />
    <path
       style="fill:none;stroke:#6c6c6c;stroke-width:7.965;stroke-linecap:butt;stroke-linejoin:miter;stroke-miterlimit:4;stroke-dasharray:none;stroke-opacity:1"
       d="m -284.74824,240.57324 c -1.52278,8.34906 -15.06719,181.19244 -0.80694,201.8706 14.26025,20.67814 58.61959,28.09156 80.33591,25.45173 21.71631,-2.6398 39.53647,-7.76568 40.07101,-35.85919 0.53454,-28.09351 12.67467,-67.84261 -2.17447,-84.2718 -14.84913,-16.42917 -39.86368,-22.2526 -49.50228,-16.18195 -9.6386,6.07066 -30.99757,-23.83956 -21.30779,-34.3962 9.68977,-10.55661 19.0707,-52.94958 1.87785,-62.48344 -17.19285,-9.53389 -44.23861,-25.32902 -48.49329,5.87025 z"
       id="path1680" />
    <path
       style="fill:#46e5ff;fill-opacity:1;stroke:none;stroke-width:0.264583px;stroke-linecap:butt;stroke-linejoin:miter;stroke-opacity:1"
       d="m -131.35165,424.00078 c -18.16113,16.66344 -21.15966,33.11175 3.66158,33.62866 37.741106,-0.36149 94.635771,42.4692 112.83722,9.40519 9.7007333,-17.62196 105.857695,-29.1351 -37.87146,-50.35164 -25.642358,-3.60428 -60.46621,-9.34566 -78.62734,7.31779 z"
       id="path1682"
       sodipodi:nodetypes="zcscz" />
    <path
       style="fill:#46e5ff;fill-opacity:1;stroke:none;stroke-width:0.264583px;stroke-linecap:butt;stroke-linejoin:miter;stroke-opacity:1"
       d="m -282.27562,74.367108 c -5.34539,7.64834 -13.66663,11.133349 -2.67269,16.227065 10.99394,5.093716 12.70096,12.872717 33.17335,8.300982 20.47239,-4.571738 47.16875,-17.926634 23.15964,-21.722403 -24.00911,-3.795768 -47.95592,-10.26133 -53.6603,-2.805644 z"
       id="path1684" />
    <path
       style="fill:#46e5ff;fill-opacity:1;stroke:none;stroke-width:0.264583px;stroke-linecap:butt;stroke-linejoin:miter;stroke-opacity:1"
       d="m 356.72304,-5.7855197 c -8.2141,0 -23.66386,-8.2496343 -28.96,7.1720418 -5.29614,15.4216789 -10.96732,28.9264829 -6.05684,43.6655709 4.91045,14.739088 -4.84815,8.724873 6.31989,30.897015 11.16804,22.172143 25.9923,10.923338 30.52342,-2.083435 4.53112,-13.006774 14.87106,-24.376004 20.11963,-32.196125 5.24856,-7.820122 15.75181,-21.43303 9.04417,-27.77945 C 381.0057,7.5436778 356.72304,-5.7855197 356.72304,-5.7855197 Z"
       id="path1686" />
    <path
       style="fill:#46e5ff;fill-opacity:1;stroke:none;stroke-width:0.264583px;stroke-linecap:butt;stroke-linejoin:miter;stroke-opacity:1"
       d="m -190.56858,252.58885 c -6.79407,7.928 -13.91704,23.19266 -6.03811,29.84116 7.87892,6.64848 12.28669,28.22432 27.08029,25.87374 14.79361,-2.35059 20.03521,-21.68732 14.80309,-32.17723 -5.23213,-10.48988 6.61112,-31.21019 -3.36121,-36.81534 -9.97233,-5.60514 -32.48406,13.27767 -32.48406,13.27767 z"
       id="path1688" />
    <path
       style="fill:#46e5ff;fill-opacity:1;stroke:none;stroke-width:0.264583px;stroke-linecap:butt;stroke-linejoin:miter;stroke-opacity:1"
       d="m 249.23234,109.90419 c -12.58174,-3.57714 -26.25313,2.5282 -26.87751,15.32408 -1.83949,37.69799 15.19541,25.36467 26.84416,19.88898 8.34918,-3.92468 10.64059,-10.8457 10.64059,-10.8457 0,0 13.10064,-17.62692 -10.60724,-24.36736 z"
       id="path851"
       sodipodi:nodetypes="ssscs" />
    <path
       style="fill:#6fcc76;stroke:none;stroke-width:0.264583px;stroke-linecap:butt;stroke-linejoin:miter;stroke-opacity:1;fill-opacity:1"
       d="m 113.8874,362.47995 c -1.18766,1.30865 -14.758061,23.4778 -0.68755,23.61594 14.07052,0.13811 14.88184,-11.59923 21.79881,-14.00466 6.91695,-2.40541 12.3231,-10.67599 5.15644,-16.22642 -7.16669,-5.55046 -26.2677,6.61514 -26.2677,6.61514 z"
       id="path853" />
    <path
       style="fill:#6fcc76;stroke:none;stroke-width:0.264583px;stroke-linecap:butt;stroke-linejoin:miter;stroke-opacity:1;fill-opacity:1"
       d="m 25.487808,281.99285 c 1.059021,7.12007 -2.244064,11.70911 8.542761,9.62163 10.786824,-2.08751 16.777996,-16.09839 20.884805,-11.14156 4.106836,4.95687 13.84808,-7.42291 6.548914,-11.75914 -7.29914,-4.3362 -22.762315,-13.93788 -25.682231,-7.81071 -2.919915,6.12717 -9.00377,14.36365 -10.294249,21.08978 z"
       id="path855" />
    <path
       style="fill:#6fcc76;stroke:none;stroke-width:0.264583px;stroke-linecap:butt;stroke-linejoin:miter;stroke-opacity:1;fill-opacity:1"
       d="m 206.5983,213.9321 c -0.77441,2.60865 3.4231,16.24623 12.02446,17.59738 8.60137,1.35117 19.10834,-7.49697 28.96704,-8.00931 9.85872,-0.51231 16.99998,-10.70779 11.12006,-15.78591 -5.87994,-5.07812 -10.36256,-12.31112 -16.24367,-7.75182 -5.8811,4.55933 -3.95544,8.77742 -9.29415,10.38104 -5.33873,1.60363 -4.50223,-3.99148 -12.75114,-1.84995 -8.24889,2.14157 -13.8226,5.41857 -13.8226,5.41857 z"
       id="path857" />
    <path
       style="fill:#6fcc76;stroke:none;stroke-width:0.264583px;stroke-linecap:butt;stroke-linejoin:miter;stroke-opacity:1;fill-opacity:1"
       d="m 80.279126,166.00977 c -1.633987,7.08861 1.970934,12.1435 9.187207,7.33265 7.216298,-4.81086 9.886156,-14.68658 16.033357,-12.54843 6.14719,2.13816 3.10599,8.27205 9.00062,2.40543 5.89465,-5.86662 5.89804,-12.01039 -1.31824,-15.48489 -7.21627,-3.47451 -19.507831,-3.73506 -22.441107,1.06581 -2.933277,4.80087 -5.481955,12.24471 -8.350277,13.99733 -2.868347,1.75262 -2.11156,3.2321 -2.11156,3.2321 z"
       id="path859" />
    <path
       style="fill:#6fcc76;stroke:none;stroke-width:0.264583px;stroke-linecap:butt;stroke-linejoin:miter;stroke-opacity:1;fill-opacity:1"
       d="m -24.752677,108.52721 c -5.074841,4.80759 -10.942161,13.63342 -7.212991,16.02622 3.729143,2.3928 13.641334,-3.47744 20.574872,-4.80824 6.9335125,-1.3308 16.3919696,0.80732 16.6592517,-4.2708 0.2672556,-5.07812 -1.8674556,-10.67754 -8.532442,-9.87912 -6.6649863,0.79842 -11.7785617,4.80844 -12.7774697,0.98497 -0.998882,-3.82347 -8.711221,1.94697 -8.711221,1.94697 z"
       id="path861" />
    <path
       style="fill:#63c86b;stroke:none;stroke-width:0.264583px;stroke-linecap:butt;stroke-linejoin:miter;stroke-opacity:1;fill-opacity:1"
       d="m -168.41238,-54.362766 c -4.58221,5.674909 -5.92078,14.131093 5.83908,18.407405 11.75986,4.276312 17.07213,-10.6192 30.957,-6.368206 13.88487,4.250997 24.9789,14.744457 26.58252,4.066921 1.60361,-10.677535 0.63842,-17.566967 -11.18532,-20.255649 -11.82374,-2.688682 -25.73778,-8.535463 -32.12265,-0.550526 -6.38488,7.984938 -14.26816,-0.897793 -20.07063,4.700055 z"
       id="path863" />
    <path
       style="fill:#63c86b;stroke:none;stroke-width:0.264583px;stroke-linecap:butt;stroke-linejoin:miter;stroke-opacity:1;fill-opacity:1"
       d="m -312.3228,53.902925 c -2.40472,5.689655 -7.04381,2.943619 -5.98824,18.268222 1.05557,15.324605 -1.51023,20.451992 8.51579,17.279537 10.02601,-3.172457 -1.09284,-13.965671 13.2134,-14.524624 14.30623,-0.558954 17.08835,-7.389194 11.89842,-12.491392 -5.18994,-5.102198 -27.63937,-8.531743 -27.63937,-8.531743 z"
       id="path865" />
    <path
       style="fill:#63c86b;stroke:none;stroke-width:0.264583px;stroke-linecap:butt;stroke-linejoin:miter;stroke-opacity:1;fill-opacity:1"
       d="m 359.31778,395.06881 c -1.59689,12.80885 5.25463,23.22401 11.13457,18.94768 5.87991,-4.2763 18.31636,-21.97333 22.3724,-24.51023 4.05601,-2.5369 -11.45731,-17.99317 -16.2228,-14.8313 -4.76551,3.16188 -17.28417,20.39385 -17.28417,20.39385 z"
       id="path867" />
    <path
       style="fill:#63c86b;stroke:none;stroke-width:0.264583px;stroke-linecap:butt;stroke-linejoin:miter;stroke-opacity:1;fill-opacity:1"
       d="m 148.55877,451.28644 c -15.1007,7.02601 -26.38467,18.75663 -11.40611,24.10436 14.97859,5.34776 59.94146,-3.90718 89.66142,9.64859 29.71998,13.55577 54.5026,12.9154 65.19913,-4.20883 10.69652,-17.12423 10.0707,-33.06848 -20.79729,-38.66142 -30.86795,-5.59298 -45.18731,-0.099 -60.19538,6.87461 -15.00806,6.9736 -54.56218,-5.66578 -62.46177,2.24269 z"
       id="path869" />
    <path
       style="fill:#63c86b;stroke:none;stroke-width:0.264583px;stroke-linecap:butt;stroke-linejoin:miter;stroke-opacity:1;fill-opacity:1"
       d="m 44.058462,66.62883 c -3.200506,6.381189 -9.670071,16.939707 -0.122211,16.932984 9.547886,-0.0067 2.039038,-7.451638 15.402507,-13.331569 C 72.702253,64.350317 72.292493,56.873362 62.845281,56.357483 53.398068,55.841606 44.058462,66.62883 44.058462,66.62883 Z"
       id="path871" />
    <path
       style="fill:#63c86b;stroke:none;stroke-width:0.264583px;stroke-linecap:butt;stroke-linejoin:miter;stroke-opacity:1;fill-opacity:1"
       d="m 114.18762,-28.129179 c -5.3454,2.672696 -22.410602,6.755995 -11.71982,14.774079 10.69078,8.0180868 14.97195,-2.106181 26.14525,5.8799307 11.17333,7.98611181 18.7996,3.6574677 14.53004,-3.7077777 -4.26955,-7.365246 -4.03246,-10.938344 -11.96411,-12.535109 -7.93168,-1.596766 -16.99136,-4.411123 -16.99136,-4.411123 z"
       id="path873" />
    <path
       style="fill:#63c86b;stroke:none;stroke-width:0.264583px;stroke-linecap:butt;stroke-linejoin:miter;stroke-opacity:1;fill-opacity:1"
       d="m 305.26526,109.76708 c -0.53454,7.4703 -9.62173,24.51611 2.66607,26.11307 12.28781,1.59696 27.41036,9.81537 39.15064,17.81388 11.7403,7.99851 33.59467,21.86148 38.91375,17.05063 5.3191,-4.81085 -1.07154,-23.5021 -5.8824,-33.1238 -4.81084,-9.6217 -17.46563,-34.7605 -14.88872,-41.587162 2.57689,-6.826663 -9.78,-13.443344 -13.91565,-5.33717 -4.13562,8.106174 -11.95104,13.714332 -14.47149,13.714332 -2.52048,0 -10.3777,-7.952443 -17.25999,-21.221892 -6.88229,-13.269449 -13.2003,-20.219238 -16.25105,-8.732718 -3.05078,11.486523 1.11667,16.537106 2.66377,25.437128 1.54713,8.900022 -0.72493,9.873702 -0.72493,9.873702 z"
       id="path875" />
    <path
       style="fill:#63c86b;stroke:none;stroke-width:0.264583px;stroke-linecap:butt;stroke-linejoin:miter;stroke-opacity:1;fill-opacity:1"
       d="m -80.72051,349.3736 c -8.843383,4.1166 -16.333832,0.91093 -22.21949,8.66407 -5.88565,7.75314 -5.00737,16.25558 9.172664,18.48284 14.180031,2.22724 21.062613,2.49722 31.627156,-8.15187 10.564548,-10.64908 26.794539,-21.42177 24.027526,-33.22793 -2.767012,-11.80616 0.334884,-6.30754 -13.736372,-23.62478 -14.071283,-17.31724 -8.437721,-21.59164 -19.443383,-28.5506 -11.005666,-6.95894 -25.650353,-10.31211 -28.587022,-0.15915 -2.936669,10.15299 -4.289089,20.03615 2.409764,24.85805 6.698851,4.82193 12.00408,3.47086 14.676774,11.74959 2.672696,8.27874 3.452614,7.81773 0.0034,15.22103 -3.449254,7.40328 7.520641,9.94371 2.06902,14.73875 z"
       id="path877" />
    <path
       style="fill:#63c86b;stroke:none;stroke-width:0.264583px;stroke-linecap:butt;stroke-linejoin:miter;stroke-opacity:1;fill-opacity:1"
       d="m -258.6527,429.06874 c -10.02874,7.42718 -14.94724,18.40283 -5.86678,19.46521 9.08046,1.06236 20.14213,-6.93232 30.63516,-3.20045 10.49304,3.73184 19.92561,-10.51062 13.64155,-16.37033 -6.28406,-5.8597 -38.40993,0.10557 -38.40993,0.10557 z"
       id="path879" />
    <path
       style="fill:#63c86b;stroke:none;stroke-width:0.264583px;stroke-linecap:butt;stroke-linejoin:miter;stroke-opacity:1;fill-opacity:1"
       d="m -269.90839,322.58358 c -1.62197,13.31595 -8.53508,37.81203 3.74596,34.07699 12.28104,-3.73505 13.35368,-20.92037 9.13163,-27.641 -4.22203,-6.72062 -12.87759,-6.43599 -12.87759,-6.43599 z"
       id="path889" />
    <path
       style="fill:#63c86b;stroke:none;stroke-width:0.264583px;stroke-linecap:butt;stroke-linejoin:miter;stroke-opacity:1;fill-opacity:1"
       d="m -205.63893,244.98918 c -2.45684,2.83482 -6.60652,6.79534 -2.45921,8.1148 4.14733,1.31947 8.30507,0.7525 10.19495,-2.83827 1.88988,-3.59079 8.4879,-8.85621 3.77501,-9.60985 -4.71289,-0.75361 -11.51075,4.33332 -11.51075,4.33332 z"
       id="path891" />
    <path
       style="fill:#63c86b;fill-opacity:1;stroke:none;stroke-width:0.264583px;stroke-linecap:butt;stroke-linejoin:miter;stroke-opacity:1"
       d="m -190.6871,117.34826 c -3.74663,-0.18726 -9.42312,-1.01367 -7.90576,3.0654 1.51737,4.07908 4.52661,7.00358 8.51903,6.27844 3.99244,-0.72515 12.2056,1.22485 9.89407,-2.95081 -2.31155,-4.17564 -10.50734,-6.39303 -10.50734,-6.39303 z"
       id="path893" />
    <path
       style="fill:#63c86b;fill-opacity:1;stroke:none;stroke-width:0.264583px;stroke-linecap:butt;stroke-linejoin:miter;stroke-opacity:1"
       d="m 212.31965,-1.5839384 c -3.74663,-0.18726 -9.42312,-1.01367 -7.90576,3.0654 1.51737,4.07908 4.52661,7.00358 8.51903,6.27844 3.99244,-0.72515 12.2056,1.22485 9.89407,-2.95081 -2.31155,-4.17563998 -10.50734,-6.39303 -10.50734,-6.39303 z"
       id="path895"
       inkscape:transform-center-x="-1.1003336"
       inkscape:transform-center-y="-3.178002" />
    <path
       style="fill:#63c86b;fill-opacity:1;stroke:none;stroke-width:0.264583px;stroke-linecap:butt;stroke-linejoin:miter;stroke-opacity:1"
       d="m 346.30873,-54.853697 c -1.1666,4.528061 -3.80262,11.292971 3.07646,10.163753 6.87911,-1.129227 12.25566,-4.277827 12.01897,-9.265698 -0.23671,-4.987897 4.78442,-14.643098 -2.433,-12.564086 -7.2174,2.07904 -12.66243,11.666031 -12.66243,11.666031 z"
       id="path897"
       inkscape:transform-center-x="5.0116419"
       inkscape:transform-center-y="-1.8713424" />
  </g>
</svg>
